<svg xmlns="http://www.w3.org/2000/svg" version="1.1" xmlns:xlink="http://www.w3.org/1999/xlink" xmlns:svgjs="http://svgjs.dev/svgjs" width="1500" height="935" viewBox="0 0 1500 935"><g transform="matrix(1,0,0,1,-0.9090909090909918,0.3785425101214628)"><svg viewBox="0 0 396 247" data-background-color="#000000" preserveAspectRatio="xMidYMid meet" height="935" width="1500" xmlns="http://www.w3.org/2000/svg" xmlns:xlink="http://www.w3.org/1999/xlink"><g id="tight-bounds" transform="matrix(1,0,0,1,0.2400000000000091,-0.09999999999999432)"><svg viewBox="0 0 395.52 247.2" height="247.2" width="395.52"><g><svg></svg></g><g><svg viewBox="0 0 395.52 247.2" height="247.2" width="395.52"><mask id="0e056389-3898-4d07-a191-af4376dab707"><rect width="640" height="400" fill="white"></rect><g transform="matrix(1,0,0,1,39.55199999999999,38.02837735849056)"><svg viewBox="0 0 316.416 171.14324528301887" height="171.14324528301887" width="316.416"><g><svg viewBox="0 0 316.416 171.14324528301887" height="171.14324528301887" width="316.416"><g><svg viewBox="0 0 316.41600000000005 171.1432452830189" height="171.14324528301887" width="316.416"><g><svg viewBox="0 0 316.41600000000005 171.1432452830189" height="171.1432452830189" width="316.41600000000005"><g id="SvgjsG1402"><svg viewBox="0 0 316.41600000000005 171.1432452830189" height="171.1432452830189" width="316.41600000000005" id="SvgjsSvg1401"><g><svg viewBox="0 0 316.41600000000005 171.1432452830189" height="171.1432452830189" width="316.41600000000005"><g transform="matrix(1,0,0,1,0,0)"><svg width="316.41600000000005" viewBox="-1.2999999999999998 -35.05 72.55 39.7" height="171.1432452830189" data-palette-color="url(#88b96024-7bc9-4153-a2a4-ef92992f4c00)"><path d="M28.5-14.35L28.5-14.35 28.5-3.5Q28.5-2.6 27.98-1.98 27.45-1.35 26.4-0.85L26.4-0.85Q25.15-0.2 22.95 0.23 20.75 0.65 18.5 0.65L18.5 0.65Q13.85 0.65 10.28-1.05 6.7-2.75 4.7-6.25 2.7-9.75 2.7-15.15L2.7-15.15Q2.7-20.5 4.78-24.03 6.85-27.55 10.3-29.3 13.75-31.05 17.85-31.05L17.85-31.05Q20.7-31.05 22.85-30.45 25-29.85 26.2-28.95 27.4-28.05 27.4-27.1L27.4-27.1Q27.4-26.45 27-25.93 26.6-25.4 26.05-25.15L26.05-25.15Q24.7-26.05 22.85-26.83 21-27.6 18.1-27.6L18.1-27.6Q14.95-27.6 12.4-26.2 9.85-24.8 8.38-22.03 6.9-19.25 6.9-15.15L6.9-15.15Q6.9-10.85 8.43-8.13 9.95-5.4 12.6-4.1 15.25-2.8 18.55-2.8L18.55-2.8Q20.35-2.8 21.95-3.1 23.55-3.4 24.45-3.85L24.45-3.85 24.45-13.05 16.9-13.05Q16.75-13.3 16.6-13.73 16.45-14.15 16.45-14.65L16.45-14.65Q16.45-15.5 16.85-15.98 17.25-16.45 18-16.45L18-16.45 26.35-16.45Q27.25-16.45 27.88-15.88 28.5-15.3 28.5-14.35ZM53.7-7.9L53.7-7.9 53.7-7.9Q53.35-7.65 52.77-7.45 52.2-7.25 51.5-7.25L51.5-7.25Q50.7-7.25 50.07-7.5 49.45-7.75 49.2-8.3L49.2-8.3Q46.55-13.9 44.57-18.55 42.6-23.2 41.4-26.25L41.4-26.25 41.2-26.25Q41.05-22.5 40.87-19.25 40.7-16 40.5-12.98 40.3-9.95 40.12-6.78 39.95-3.6 39.7 0L39.7 0Q39.4 0.1 38.92 0.2 38.45 0.3 37.9 0.3L37.9 0.3Q36.8 0.3 36.35-0.18 35.9-0.65 35.9-1.45L35.9-1.45Q35.9-2.05 36.02-4.23 36.15-6.4 36.32-9.55 36.5-12.7 36.75-16.28 37-19.85 37.27-23.33 37.55-26.8 37.8-29.6L37.8-29.6Q38.2-29.95 38.95-30.25 39.7-30.55 40.65-30.55L40.65-30.55Q41.8-30.55 42.6-30.1 43.4-29.65 43.85-28.7L43.85-28.7Q45.15-26.15 46.45-23.15 47.75-20.15 49-17.15 50.25-14.15 51.4-11.5L51.4-11.5 51.6-11.5Q53.8-16.8 55.97-21.7 58.15-26.6 59.65-30.05L59.65-30.05Q60.1-30.3 60.8-30.43 61.5-30.55 62.1-30.55L62.1-30.55Q63.25-30.55 63.92-30.18 64.6-29.8 64.8-28.95L64.8-28.95Q65-28.1 65.25-26.05 65.5-24 65.75-21.23 66-18.45 66.22-15.4 66.45-12.35 66.65-9.4 66.85-6.45 67.02-4.08 67.2-1.7 67.25-0.3L67.25-0.3Q66.8 0 66.3 0.15 65.8 0.3 65.15 0.3L65.15 0.3Q64.4 0.3 63.82-0.08 63.25-0.45 63.15-1.45L63.15-1.45Q62.85-6.3 62.57-11.03 62.3-15.75 62.1-19.7 61.9-23.65 61.75-26.15L61.75-26.15 61.55-26.15Q60.45-23.4 58.55-19.07 56.65-14.75 53.7-7.9Z" opacity="1" transform="matrix(1,0,0,1,0,0)" fill="black" class="wordmark-text-0" id="SvgjsPath1400" stroke-width="7" stroke="black" stroke-linejoin="round"></path></svg></g></svg></g></svg></g></svg></g></svg></g></svg></g></svg></g></mask><g transform="matrix(1,0,0,1,39.55199999999999,38.02837735849056)"><svg viewBox="0 0 316.416 171.14324528301887" height="171.14324528301887" width="316.416"><g><svg viewBox="0 0 316.416 171.14324528301887" height="171.14324528301887" width="316.416"><g><svg viewBox="0 0 316.41600000000005 171.1432452830189" height="171.14324528301887" width="316.416"><g><svg viewBox="0 0 316.41600000000005 171.1432452830189" height="171.1432452830189" width="316.41600000000005"><g id="textblocktransform"><svg viewBox="0 0 316.41600000000005 171.1432452830189" height="171.1432452830189" width="316.41600000000005" id="textblock"><g><svg viewBox="0 0 316.41600000000005 171.1432452830189" height="171.1432452830189" width="316.41600000000005"><g transform="matrix(1,0,0,1,0,0)"><svg width="316.41600000000005" viewBox="-1.2999999999999998 -35.05 72.55 39.7" height="171.1432452830189" data-palette-color="url(#88b96024-7bc9-4153-a2a4-ef92992f4c00)"></svg></g></svg></g></svg></g></svg></g></svg></g></svg></g></svg></g><g mask="url(#0e056389-3898-4d07-a191-af4376dab707)"><g transform="matrix(4.391180146402427, 0, 0, 4.391180146402427, 1, 34.00016470273167)"><svg xmlns="http://www.w3.org/2000/svg" xmlns:xlink="http://www.w3.org/1999/xlink" version="1.1" x="0" y="0" viewBox="5.192 29.596000000000004 89.61600000000001 40.809" enable-background="new 0 0 100 100" xml:space="preserve" height="40.809" width="89.61600000000001" class="icon-none" data-fill-palette-color="accent" id="none"></svg></g></g></svg></g><defs></defs><mask id="116903ef-b45c-4c40-bfd6-1d0da32932f5"><g id="SvgjsG1412"><svg viewBox="0 0 395.52 247.2" height="247.2" width="395.52"><g><svg></svg></g><g><svg viewBox="0 0 395.52 247.2" height="247.2" width="395.52"><mask id="SvgjsMask1411"><rect width="640" height="400" fill="black"></rect><g transform="matrix(1,0,0,1,39.55199999999999,38.02837735849056)"><svg viewBox="0 0 316.416 171.14324528301887" height="171.14324528301887" width="316.416"><g><svg viewBox="0 0 316.416 171.14324528301887" height="171.14324528301887" width="316.416"><g><svg viewBox="0 0 316.41600000000005 171.1432452830189" height="171.14324528301887" width="316.416"><g><svg viewBox="0 0 316.41600000000005 171.1432452830189" height="171.1432452830189" width="316.41600000000005"><g id="SvgjsG1410"><svg viewBox="0 0 316.41600000000005 171.1432452830189" height="171.1432452830189" width="316.41600000000005" id="SvgjsSvg1409"><g><svg viewBox="0 0 316.41600000000005 171.1432452830189" height="171.1432452830189" width="316.41600000000005"><g transform="matrix(1,0,0,1,0,0)"><svg width="316.41600000000005" viewBox="-1.2999999999999998 -35.05 72.55 39.7" height="171.1432452830189" data-palette-color="url(#88b96024-7bc9-4153-a2a4-ef92992f4c00)"><path d="M28.5-14.35L28.5-14.35 28.5-3.5Q28.5-2.6 27.98-1.98 27.45-1.35 26.4-0.85L26.4-0.85Q25.15-0.2 22.95 0.23 20.75 0.65 18.5 0.65L18.5 0.65Q13.85 0.65 10.28-1.05 6.7-2.75 4.7-6.25 2.7-9.75 2.7-15.15L2.7-15.15Q2.7-20.5 4.78-24.03 6.85-27.55 10.3-29.3 13.75-31.05 17.85-31.05L17.85-31.05Q20.7-31.05 22.85-30.45 25-29.85 26.2-28.95 27.4-28.05 27.4-27.1L27.4-27.1Q27.4-26.45 27-25.93 26.6-25.4 26.05-25.15L26.05-25.15Q24.7-26.05 22.85-26.83 21-27.6 18.1-27.6L18.1-27.6Q14.95-27.6 12.4-26.2 9.85-24.8 8.38-22.03 6.9-19.25 6.9-15.15L6.9-15.15Q6.9-10.85 8.43-8.13 9.95-5.4 12.6-4.1 15.25-2.8 18.55-2.8L18.55-2.8Q20.35-2.8 21.95-3.1 23.55-3.4 24.45-3.85L24.45-3.85 24.45-13.05 16.9-13.05Q16.75-13.3 16.6-13.73 16.45-14.15 16.45-14.65L16.45-14.65Q16.45-15.5 16.85-15.98 17.25-16.45 18-16.45L18-16.45 26.35-16.45Q27.25-16.45 27.88-15.88 28.5-15.3 28.5-14.35ZM53.7-7.9L53.7-7.9 53.7-7.9Q53.35-7.65 52.77-7.45 52.2-7.25 51.5-7.25L51.5-7.25Q50.7-7.25 50.07-7.5 49.45-7.75 49.2-8.3L49.2-8.3Q46.55-13.9 44.57-18.55 42.6-23.2 41.4-26.25L41.4-26.25 41.2-26.25Q41.05-22.5 40.87-19.25 40.7-16 40.5-12.98 40.3-9.95 40.12-6.78 39.95-3.6 39.7 0L39.7 0Q39.4 0.1 38.92 0.2 38.45 0.3 37.9 0.3L37.9 0.3Q36.8 0.3 36.35-0.18 35.9-0.65 35.9-1.45L35.9-1.45Q35.9-2.05 36.02-4.23 36.15-6.4 36.32-9.55 36.5-12.7 36.75-16.28 37-19.85 37.27-23.33 37.55-26.8 37.8-29.6L37.8-29.6Q38.2-29.95 38.95-30.25 39.7-30.55 40.65-30.55L40.65-30.55Q41.8-30.55 42.6-30.1 43.4-29.65 43.85-28.7L43.85-28.7Q45.15-26.15 46.45-23.15 47.75-20.15 49-17.15 50.25-14.15 51.4-11.5L51.4-11.5 51.6-11.5Q53.8-16.8 55.97-21.7 58.15-26.6 59.65-30.05L59.65-30.05Q60.1-30.3 60.8-30.43 61.5-30.55 62.1-30.55L62.1-30.55Q63.25-30.55 63.92-30.18 64.6-29.8 64.8-28.95L64.8-28.95Q65-28.1 65.25-26.05 65.5-24 65.75-21.23 66-18.45 66.22-15.4 66.45-12.35 66.65-9.4 66.85-6.45 67.02-4.08 67.2-1.7 67.25-0.3L67.25-0.3Q66.8 0 66.3 0.15 65.8 0.3 65.15 0.3L65.15 0.3Q64.4 0.3 63.82-0.08 63.25-0.45 63.15-1.45L63.15-1.45Q62.85-6.3 62.57-11.03 62.3-15.75 62.1-19.7 61.9-23.65 61.75-26.15L61.75-26.15 61.55-26.15Q60.45-23.4 58.55-19.07 56.65-14.75 53.7-7.9Z" opacity="1" transform="matrix(1,0,0,1,0,0)" fill="black" class="wordmark-text-0" id="SvgjsPath1408" stroke-width="7" stroke="black" stroke-linejoin="round"></path></svg></g></svg></g></svg></g></svg></g></svg></g></svg></g></svg></g></mask><g transform="matrix(1,0,0,1,39.55199999999999,38.02837735849056)"><svg viewBox="0 0 316.416 171.14324528301887" height="171.14324528301887" width="316.416"><g><svg viewBox="0 0 316.416 171.14324528301887" height="171.14324528301887" width="316.416"><g><svg viewBox="0 0 316.41600000000005 171.1432452830189" height="171.14324528301887" width="316.416"><g><svg viewBox="0 0 316.41600000000005 171.1432452830189" height="171.1432452830189" width="316.41600000000005"><g id="SvgjsG1407"><svg viewBox="0 0 316.41600000000005 171.1432452830189" height="171.1432452830189" width="316.41600000000005" id="SvgjsSvg1406"><g><svg viewBox="0 0 316.41600000000005 171.1432452830189" height="171.1432452830189" width="316.41600000000005"><g transform="matrix(1,0,0,1,0,0)"><svg width="316.41600000000005" viewBox="-1.2999999999999998 -35.05 72.55 39.7" height="171.1432452830189" data-palette-color="url(#88b96024-7bc9-4153-a2a4-ef92992f4c00)"><path d="M28.5-14.35L28.5-14.35 28.5-3.5Q28.5-2.6 27.98-1.98 27.45-1.35 26.4-0.85L26.4-0.85Q25.15-0.2 22.95 0.23 20.75 0.65 18.5 0.65L18.5 0.65Q13.85 0.65 10.28-1.05 6.7-2.75 4.7-6.25 2.7-9.75 2.7-15.15L2.7-15.15Q2.7-20.5 4.78-24.03 6.85-27.55 10.3-29.3 13.75-31.05 17.85-31.05L17.85-31.05Q20.7-31.05 22.85-30.45 25-29.85 26.2-28.95 27.4-28.05 27.4-27.1L27.4-27.1Q27.4-26.45 27-25.93 26.6-25.4 26.05-25.15L26.05-25.15Q24.7-26.05 22.85-26.83 21-27.6 18.1-27.6L18.1-27.6Q14.95-27.6 12.4-26.2 9.85-24.8 8.38-22.03 6.9-19.25 6.9-15.15L6.9-15.15Q6.9-10.85 8.43-8.13 9.95-5.4 12.6-4.1 15.25-2.8 18.55-2.8L18.55-2.8Q20.35-2.8 21.95-3.1 23.55-3.4 24.45-3.85L24.45-3.85 24.45-13.05 16.9-13.05Q16.75-13.3 16.6-13.73 16.45-14.15 16.45-14.65L16.45-14.65Q16.45-15.5 16.85-15.98 17.25-16.45 18-16.45L18-16.45 26.35-16.45Q27.25-16.45 27.88-15.88 28.5-15.3 28.5-14.35ZM53.7-7.9L53.7-7.9 53.7-7.9Q53.35-7.65 52.77-7.45 52.2-7.25 51.5-7.25L51.5-7.25Q50.7-7.25 50.07-7.5 49.45-7.75 49.2-8.3L49.2-8.3Q46.55-13.9 44.57-18.55 42.6-23.2 41.4-26.25L41.4-26.25 41.2-26.25Q41.05-22.5 40.87-19.25 40.7-16 40.5-12.98 40.3-9.95 40.12-6.78 39.95-3.6 39.7 0L39.7 0Q39.4 0.1 38.92 0.2 38.45 0.3 37.9 0.3L37.9 0.3Q36.8 0.3 36.35-0.18 35.9-0.65 35.9-1.45L35.9-1.45Q35.9-2.05 36.02-4.23 36.15-6.4 36.32-9.55 36.5-12.7 36.75-16.28 37-19.85 37.27-23.33 37.55-26.8 37.8-29.6L37.8-29.6Q38.2-29.95 38.95-30.25 39.7-30.55 40.65-30.55L40.65-30.55Q41.8-30.55 42.6-30.1 43.4-29.65 43.85-28.7L43.85-28.7Q45.15-26.15 46.45-23.15 47.75-20.15 49-17.15 50.25-14.15 51.4-11.5L51.4-11.5 51.6-11.5Q53.8-16.8 55.97-21.7 58.15-26.6 59.65-30.05L59.65-30.05Q60.1-30.3 60.8-30.43 61.5-30.55 62.1-30.55L62.1-30.55Q63.25-30.55 63.92-30.18 64.6-29.8 64.8-28.95L64.8-28.95Q65-28.1 65.25-26.05 65.5-24 65.75-21.23 66-18.45 66.22-15.4 66.45-12.35 66.65-9.4 66.85-6.45 67.02-4.08 67.2-1.7 67.25-0.3L67.25-0.3Q66.8 0 66.3 0.15 65.8 0.3 65.15 0.3L65.15 0.3Q64.4 0.3 63.82-0.08 63.25-0.45 63.15-1.45L63.15-1.45Q62.85-6.3 62.57-11.03 62.3-15.75 62.1-19.7 61.9-23.65 61.75-26.15L61.75-26.15 61.55-26.15Q60.45-23.4 58.55-19.07 56.65-14.75 53.7-7.9Z" opacity="1" transform="matrix(1,0,0,1,0,0)" fill="white" class="wordmark-text-0" id="SvgjsPath1405"></path></svg></g></svg></g></svg></g></svg></g></svg></g></svg></g></svg></g><g mask="url(#0e056389-3898-4d07-a191-af4376dab707)"><g transform="matrix(4.391180146402427, 0, 0, 4.391180146402427, 1, 34.00016470273167)"><svg xmlns="http://www.w3.org/2000/svg" xmlns:xlink="http://www.w3.org/1999/xlink" version="1.1" x="0" y="0" viewBox="5.192 29.596000000000004 89.61600000000001 40.809" enable-background="new 0 0 100 100" xml:space="preserve" height="40.809" width="89.61600000000001" class="icon-none" data-fill-palette-color="accent" id="SvgjsSvg1404"><g fill="black"><path d="M85.077 70.405H73.855l3.503-4.205h2.129l-3.32-4.476-7.27 0.11-10.221-5.398-11.243 4.368-1.883-2.091-3.763 11.691h-13.16l4.979-3.752h1.813L36.597 66l0.014-5.483-4.95-1.297-0.438 3.12-10.444-6.789-0.469 3.242-6.361-6.271-3.148 1.475L5.192 46.87l4.142-4.473 0.128-1.545 3.68-2.809 0.099-3.836 6.859-4.458 0.834 1.355 3.24-1.508 10.789 1.318-2.394 1.812 8.105 1.407-1.583 3.004 0.691-0.176 14.894 2.069 8.671-0.994 10.349 2.131 13.258 9.428 0.805-0.395-0.262-1.4 7.311-6.758-2.389 10.748-5.748 2.028-14.254-9.731h-3.91l6.829 8.744 4.73 0.979 6.076 12.962 0.856 0.664L85.077 70.405 85.077 70.405zM77.183 68.847h7.046l0.685-1.058-0.021-0.017-5.906-12.596-4.525-0.936-9.147-11.714h7.151l14.433 9.558 4.188-1.479 1.119-5.035-3.017 2.789 0.322 1.717-2.701 1.325L73.244 41.358l-9.981-1.744L54.657 40.6l-0.098-0.013-14.689-2.04-3.79 0.959 2.216-4.205-9.528-1.655 2.185-1.653-6.525-0.797-4.093 1.907-0.725-1.177-4.832 3.14-0.096 3.763-3.724 2.842-0.115 1.391-3.603 3.89 4.018 5.109 3.009-1.41 4.939 4.867 0.375-2.603 10.436 6.784 0.341-2.432 7.812 2.047-0.019 7.604-2.218 1.183H34.24l-0.952 0.746h7.364l4.244-13.188 2.977 3.303 10.904-4.236 10.497 5.545 7.669-0.116 5.642 7.604h-4.496L77.183 68.847 77.183 68.847z" fill="black"></path></g></svg></g></g></svg></g><defs><mask></mask></defs></svg><rect width="395.52" height="247.2" fill="black" stroke="none" visibility="hidden"></rect></g></mask><linearGradient x1="0" x2="1" y1="0.578" y2="0.595" id="88b96024-7bc9-4153-a2a4-ef92992f4c00"><stop stop-color="#6ee2f5" offset="0"></stop><stop stop-color="#6454f0" offset="1"></stop></linearGradient><rect width="395.52" height="247.2" fill="url(#88b96024-7bc9-4153-a2a4-ef92992f4c00)" mask="url(#116903ef-b45c-4c40-bfd6-1d0da32932f5)" data-fill-palette-color="primary"></rect><mask id="54e42da3-80b7-407a-b18b-b3ed219f4ab4"><g id="SvgjsG1447"><svg viewBox="0 0 395.52 247.2" height="247.2" width="395.52"><g><svg></svg></g><g><svg viewBox="0 0 395.52 247.2" height="247.2" width="395.52"><mask id="SvgjsMask1446"><rect width="640" height="400" fill="black"></rect><g transform="matrix(1,0,0,1,39.55199999999999,38.02837735849056)"><svg viewBox="0 0 316.416 171.14324528301887" height="171.14324528301887" width="316.416"><g><svg viewBox="0 0 316.416 171.14324528301887" height="171.14324528301887" width="316.416"><g><svg viewBox="0 0 316.41600000000005 171.1432452830189" height="171.14324528301887" width="316.416"><g><svg viewBox="0 0 316.41600000000005 171.1432452830189" height="171.1432452830189" width="316.41600000000005"><g id="SvgjsG1445"><svg viewBox="0 0 316.41600000000005 171.1432452830189" height="171.1432452830189" width="316.41600000000005" id="SvgjsSvg1444"><g><svg viewBox="0 0 316.41600000000005 171.1432452830189" height="171.1432452830189" width="316.41600000000005"><g transform="matrix(1,0,0,1,0,0)"><svg width="316.41600000000005" viewBox="-1.2999999999999998 -35.05 72.55 39.7" height="171.1432452830189" data-palette-color="url(#88b96024-7bc9-4153-a2a4-ef92992f4c00)"><path d="M28.5-14.35L28.5-14.35 28.5-3.5Q28.5-2.6 27.98-1.98 27.45-1.35 26.4-0.85L26.4-0.85Q25.15-0.2 22.95 0.23 20.75 0.65 18.5 0.65L18.5 0.65Q13.85 0.65 10.28-1.05 6.7-2.75 4.7-6.25 2.7-9.75 2.7-15.15L2.7-15.15Q2.7-20.5 4.78-24.03 6.85-27.55 10.3-29.3 13.75-31.05 17.85-31.05L17.85-31.05Q20.7-31.05 22.85-30.45 25-29.85 26.2-28.95 27.4-28.05 27.4-27.1L27.4-27.1Q27.4-26.45 27-25.93 26.6-25.4 26.05-25.15L26.05-25.15Q24.7-26.05 22.85-26.83 21-27.6 18.1-27.6L18.1-27.6Q14.95-27.6 12.4-26.2 9.85-24.8 8.38-22.03 6.9-19.25 6.9-15.15L6.9-15.15Q6.9-10.85 8.43-8.13 9.95-5.4 12.6-4.1 15.25-2.8 18.55-2.8L18.55-2.8Q20.35-2.8 21.95-3.1 23.55-3.4 24.45-3.85L24.45-3.85 24.45-13.05 16.9-13.05Q16.75-13.3 16.6-13.73 16.45-14.15 16.45-14.65L16.45-14.65Q16.45-15.5 16.85-15.98 17.25-16.45 18-16.45L18-16.45 26.35-16.45Q27.25-16.45 27.88-15.88 28.5-15.3 28.5-14.35ZM53.7-7.9L53.7-7.9 53.7-7.9Q53.35-7.65 52.77-7.45 52.2-7.25 51.5-7.25L51.5-7.25Q50.7-7.25 50.07-7.5 49.45-7.75 49.2-8.3L49.2-8.3Q46.55-13.9 44.57-18.55 42.6-23.2 41.4-26.25L41.4-26.25 41.2-26.25Q41.05-22.5 40.87-19.25 40.7-16 40.5-12.98 40.3-9.95 40.12-6.78 39.95-3.6 39.7 0L39.7 0Q39.4 0.1 38.92 0.2 38.45 0.3 37.9 0.3L37.9 0.3Q36.8 0.3 36.35-0.18 35.9-0.65 35.9-1.45L35.9-1.45Q35.9-2.05 36.02-4.23 36.15-6.4 36.32-9.55 36.5-12.7 36.75-16.28 37-19.85 37.27-23.33 37.55-26.8 37.8-29.6L37.8-29.6Q38.2-29.95 38.95-30.25 39.7-30.55 40.65-30.55L40.65-30.55Q41.8-30.55 42.6-30.1 43.4-29.65 43.85-28.7L43.85-28.7Q45.15-26.15 46.45-23.15 47.75-20.15 49-17.15 50.25-14.15 51.4-11.5L51.4-11.5 51.6-11.5Q53.8-16.8 55.97-21.7 58.15-26.6 59.65-30.05L59.65-30.05Q60.1-30.3 60.8-30.43 61.5-30.55 62.1-30.55L62.1-30.55Q63.25-30.55 63.92-30.18 64.6-29.8 64.8-28.95L64.8-28.95Q65-28.1 65.25-26.05 65.5-24 65.75-21.23 66-18.45 66.22-15.4 66.45-12.35 66.65-9.4 66.85-6.45 67.02-4.08 67.2-1.7 67.25-0.3L67.25-0.3Q66.8 0 66.3 0.15 65.8 0.3 65.15 0.3L65.15 0.3Q64.4 0.3 63.82-0.08 63.25-0.45 63.15-1.45L63.15-1.45Q62.85-6.3 62.57-11.03 62.3-15.75 62.1-19.7 61.9-23.65 61.75-26.15L61.75-26.15 61.55-26.15Q60.45-23.4 58.55-19.07 56.65-14.75 53.7-7.9Z" opacity="1" transform="matrix(1,0,0,1,0,0)" fill="black" class="wordmark-text-0" id="SvgjsPath1443" stroke-width="7" stroke="black" stroke-linejoin="round"></path></svg></g></svg></g></svg></g></svg></g></svg></g></svg></g></svg></g></mask><g transform="matrix(1,0,0,1,39.55199999999999,38.02837735849056)"><svg viewBox="0 0 316.416 171.14324528301887" height="171.14324528301887" width="316.416"><g><svg viewBox="0 0 316.416 171.14324528301887" height="171.14324528301887" width="316.416"><g><svg viewBox="0 0 316.41600000000005 171.1432452830189" height="171.14324528301887" width="316.416"><g><svg viewBox="0 0 316.41600000000005 171.1432452830189" height="171.1432452830189" width="316.41600000000005"><g id="SvgjsG1442"><svg viewBox="0 0 316.41600000000005 171.1432452830189" height="171.1432452830189" width="316.41600000000005" id="SvgjsSvg1441"><g><svg viewBox="0 0 316.41600000000005 171.1432452830189" height="171.1432452830189" width="316.41600000000005"><g transform="matrix(1,0,0,1,0,0)"><svg width="316.41600000000005" viewBox="-1.2999999999999998 -35.05 72.55 39.7" height="171.1432452830189" data-palette-color="url(#88b96024-7bc9-4153-a2a4-ef92992f4c00)"></svg></g></svg></g></svg></g></svg></g></svg></g></svg></g></svg></g><g mask="url(#0e056389-3898-4d07-a191-af4376dab707)"><g transform="matrix(4.391180146402427, 0, 0, 4.391180146402427, 1, 34.00016470273167)"><svg xmlns="http://www.w3.org/2000/svg" xmlns:xlink="http://www.w3.org/1999/xlink" version="1.1" x="0" y="0" viewBox="5.192 29.596000000000004 89.61600000000001 40.809" enable-background="new 0 0 100 100" xml:space="preserve" height="40.809" width="89.61600000000001" class="icon-none" data-fill-palette-color="accent" id="SvgjsSvg1440"><g fill="white"><path d="M85.077 70.405H73.855l3.503-4.205h2.129l-3.32-4.476-7.27 0.11-10.221-5.398-11.243 4.368-1.883-2.091-3.763 11.691h-13.16l4.979-3.752h1.813L36.597 66l0.014-5.483-4.95-1.297-0.438 3.12-10.444-6.789-0.469 3.242-6.361-6.271-3.148 1.475L5.192 46.87l4.142-4.473 0.128-1.545 3.68-2.809 0.099-3.836 6.859-4.458 0.834 1.355 3.24-1.508 10.789 1.318-2.394 1.812 8.105 1.407-1.583 3.004 0.691-0.176 14.894 2.069 8.671-0.994 10.349 2.131 13.258 9.428 0.805-0.395-0.262-1.4 7.311-6.758-2.389 10.748-5.748 2.028-14.254-9.731h-3.91l6.829 8.744 4.73 0.979 6.076 12.962 0.856 0.664L85.077 70.405 85.077 70.405zM77.183 68.847h7.046l0.685-1.058-0.021-0.017-5.906-12.596-4.525-0.936-9.147-11.714h7.151l14.433 9.558 4.188-1.479 1.119-5.035-3.017 2.789 0.322 1.717-2.701 1.325L73.244 41.358l-9.981-1.744L54.657 40.6l-0.098-0.013-14.689-2.04-3.79 0.959 2.216-4.205-9.528-1.655 2.185-1.653-6.525-0.797-4.093 1.907-0.725-1.177-4.832 3.14-0.096 3.763-3.724 2.842-0.115 1.391-3.603 3.89 4.018 5.109 3.009-1.41 4.939 4.867 0.375-2.603 10.436 6.784 0.341-2.432 7.812 2.047-0.019 7.604-2.218 1.183H34.24l-0.952 0.746h7.364l4.244-13.188 2.977 3.303 10.904-4.236 10.497 5.545 7.669-0.116 5.642 7.604h-4.496L77.183 68.847 77.183 68.847z" fill="white"></path></g></svg></g></g></svg></g><defs><mask></mask></defs><mask><g id="SvgjsG1439"><svg viewBox="0 0 395.52 247.2" height="247.2" width="395.52"><g><svg></svg></g><g><svg viewBox="0 0 395.52 247.2" height="247.2" width="395.52"><mask id="SvgjsMask1438"><rect width="640" height="400" fill="black"></rect><g transform="matrix(1,0,0,1,39.55199999999999,38.02837735849056)"><svg viewBox="0 0 316.416 171.14324528301887" height="171.14324528301887" width="316.416"><g><svg viewBox="0 0 316.416 171.14324528301887" height="171.14324528301887" width="316.416"><g><svg viewBox="0 0 316.41600000000005 171.1432452830189" height="171.14324528301887" width="316.416"><g><svg viewBox="0 0 316.41600000000005 171.1432452830189" height="171.1432452830189" width="316.41600000000005"><g id="SvgjsG1437"><svg viewBox="0 0 316.41600000000005 171.1432452830189" height="171.1432452830189" width="316.41600000000005" id="SvgjsSvg1436"><g><svg viewBox="0 0 316.41600000000005 171.1432452830189" height="171.1432452830189" width="316.41600000000005"><g transform="matrix(1,0,0,1,0,0)"><svg width="316.41600000000005" viewBox="-1.2999999999999998 -35.05 72.55 39.7" height="171.1432452830189" data-palette-color="url(#88b96024-7bc9-4153-a2a4-ef92992f4c00)"><path d="M28.5-14.35L28.5-14.35 28.5-3.5Q28.5-2.6 27.98-1.98 27.45-1.35 26.4-0.85L26.4-0.85Q25.15-0.2 22.95 0.23 20.75 0.65 18.5 0.65L18.5 0.65Q13.85 0.65 10.28-1.05 6.7-2.75 4.7-6.25 2.7-9.75 2.7-15.15L2.7-15.15Q2.7-20.5 4.78-24.03 6.85-27.55 10.3-29.3 13.75-31.05 17.85-31.05L17.85-31.05Q20.7-31.05 22.85-30.45 25-29.85 26.2-28.95 27.4-28.05 27.4-27.1L27.4-27.1Q27.4-26.45 27-25.93 26.6-25.4 26.05-25.15L26.05-25.15Q24.7-26.05 22.85-26.83 21-27.6 18.1-27.6L18.1-27.6Q14.95-27.6 12.4-26.2 9.85-24.8 8.38-22.03 6.9-19.25 6.9-15.15L6.9-15.15Q6.9-10.85 8.43-8.13 9.95-5.4 12.6-4.1 15.25-2.8 18.55-2.8L18.55-2.8Q20.35-2.8 21.95-3.1 23.55-3.4 24.45-3.85L24.45-3.85 24.45-13.05 16.9-13.05Q16.75-13.3 16.6-13.73 16.45-14.15 16.45-14.65L16.45-14.65Q16.45-15.5 16.85-15.98 17.25-16.45 18-16.45L18-16.45 26.35-16.45Q27.25-16.45 27.88-15.88 28.5-15.3 28.5-14.35ZM53.7-7.9L53.7-7.9 53.7-7.9Q53.35-7.65 52.77-7.45 52.2-7.25 51.5-7.25L51.5-7.25Q50.7-7.25 50.07-7.5 49.45-7.75 49.2-8.3L49.2-8.3Q46.55-13.9 44.57-18.55 42.6-23.2 41.4-26.25L41.4-26.25 41.2-26.25Q41.05-22.5 40.87-19.25 40.7-16 40.5-12.98 40.3-9.95 40.12-6.78 39.95-3.6 39.7 0L39.7 0Q39.4 0.1 38.92 0.2 38.45 0.3 37.9 0.3L37.9 0.3Q36.8 0.3 36.35-0.18 35.9-0.65 35.9-1.45L35.9-1.45Q35.9-2.05 36.02-4.23 36.15-6.4 36.32-9.55 36.5-12.7 36.75-16.28 37-19.85 37.27-23.33 37.55-26.8 37.8-29.6L37.8-29.6Q38.2-29.95 38.95-30.25 39.7-30.55 40.65-30.55L40.65-30.55Q41.8-30.55 42.6-30.1 43.4-29.65 43.85-28.7L43.85-28.7Q45.15-26.15 46.45-23.15 47.75-20.15 49-17.15 50.25-14.15 51.4-11.5L51.4-11.5 51.6-11.5Q53.8-16.8 55.97-21.7 58.15-26.6 59.65-30.05L59.65-30.05Q60.1-30.3 60.8-30.43 61.5-30.55 62.1-30.55L62.1-30.55Q63.25-30.55 63.92-30.18 64.6-29.8 64.8-28.95L64.8-28.95Q65-28.1 65.25-26.05 65.5-24 65.75-21.23 66-18.45 66.22-15.4 66.45-12.35 66.65-9.4 66.85-6.45 67.02-4.08 67.2-1.7 67.25-0.3L67.25-0.3Q66.8 0 66.3 0.15 65.8 0.3 65.15 0.3L65.15 0.3Q64.4 0.3 63.82-0.08 63.25-0.45 63.15-1.45L63.15-1.45Q62.85-6.3 62.57-11.03 62.3-15.75 62.1-19.7 61.9-23.65 61.75-26.15L61.75-26.15 61.55-26.15Q60.45-23.4 58.55-19.07 56.65-14.75 53.7-7.9Z" opacity="1" transform="matrix(1,0,0,1,0,0)" fill="black" class="wordmark-text-0" id="SvgjsPath1435" stroke-width="7" stroke="black" stroke-linejoin="round"></path></svg></g></svg></g></svg></g></svg></g></svg></g></svg></g></svg></g></mask><g transform="matrix(1,0,0,1,39.55199999999999,38.02837735849056)"><svg viewBox="0 0 316.416 171.14324528301887" height="171.14324528301887" width="316.416"><g><svg viewBox="0 0 316.416 171.14324528301887" height="171.14324528301887" width="316.416"><g><svg viewBox="0 0 316.41600000000005 171.1432452830189" height="171.14324528301887" width="316.416"><g><svg viewBox="0 0 316.41600000000005 171.1432452830189" height="171.1432452830189" width="316.41600000000005"><g id="SvgjsG1434"><svg viewBox="0 0 316.41600000000005 171.1432452830189" height="171.1432452830189" width="316.41600000000005" id="SvgjsSvg1433"><g><svg viewBox="0 0 316.41600000000005 171.1432452830189" height="171.1432452830189" width="316.41600000000005"><g transform="matrix(1,0,0,1,0,0)"><svg width="316.41600000000005" viewBox="-1.2999999999999998 -35.05 72.55 39.7" height="171.1432452830189" data-palette-color="url(#88b96024-7bc9-4153-a2a4-ef92992f4c00)"><path d="M28.5-14.35L28.5-14.35 28.5-3.5Q28.5-2.6 27.98-1.98 27.45-1.35 26.4-0.85L26.4-0.85Q25.15-0.2 22.95 0.23 20.75 0.65 18.5 0.65L18.5 0.65Q13.85 0.65 10.28-1.05 6.7-2.75 4.7-6.25 2.7-9.75 2.7-15.15L2.7-15.15Q2.7-20.5 4.78-24.03 6.85-27.55 10.3-29.3 13.75-31.05 17.85-31.05L17.85-31.05Q20.7-31.05 22.85-30.45 25-29.85 26.2-28.95 27.4-28.05 27.4-27.1L27.4-27.1Q27.4-26.45 27-25.93 26.6-25.4 26.05-25.15L26.05-25.15Q24.7-26.05 22.85-26.83 21-27.6 18.1-27.6L18.1-27.6Q14.95-27.6 12.4-26.2 9.85-24.8 8.38-22.03 6.9-19.25 6.9-15.15L6.9-15.15Q6.9-10.85 8.43-8.13 9.95-5.4 12.6-4.1 15.25-2.8 18.55-2.8L18.55-2.8Q20.35-2.8 21.95-3.1 23.55-3.4 24.45-3.85L24.45-3.85 24.45-13.05 16.9-13.05Q16.75-13.3 16.6-13.73 16.45-14.15 16.45-14.65L16.45-14.65Q16.45-15.5 16.85-15.98 17.25-16.45 18-16.45L18-16.45 26.35-16.45Q27.25-16.45 27.88-15.88 28.5-15.3 28.5-14.35ZM53.7-7.9L53.7-7.9 53.7-7.9Q53.35-7.65 52.77-7.45 52.2-7.25 51.5-7.25L51.5-7.25Q50.7-7.25 50.07-7.5 49.45-7.75 49.2-8.3L49.2-8.3Q46.55-13.9 44.57-18.55 42.6-23.2 41.4-26.25L41.4-26.25 41.2-26.25Q41.05-22.5 40.87-19.25 40.7-16 40.5-12.98 40.3-9.95 40.12-6.78 39.95-3.6 39.7 0L39.7 0Q39.4 0.1 38.92 0.2 38.45 0.3 37.9 0.3L37.9 0.3Q36.8 0.3 36.35-0.18 35.9-0.65 35.9-1.45L35.9-1.45Q35.9-2.05 36.02-4.23 36.15-6.4 36.32-9.55 36.5-12.7 36.75-16.28 37-19.85 37.27-23.33 37.55-26.8 37.8-29.6L37.8-29.6Q38.2-29.95 38.95-30.25 39.7-30.55 40.65-30.55L40.65-30.55Q41.8-30.55 42.6-30.1 43.4-29.65 43.85-28.7L43.85-28.7Q45.15-26.15 46.45-23.15 47.75-20.15 49-17.15 50.25-14.15 51.4-11.5L51.4-11.5 51.6-11.5Q53.8-16.8 55.97-21.7 58.15-26.6 59.65-30.05L59.65-30.05Q60.1-30.3 60.8-30.43 61.5-30.55 62.1-30.55L62.1-30.55Q63.25-30.55 63.92-30.18 64.6-29.8 64.8-28.95L64.8-28.95Q65-28.1 65.25-26.05 65.5-24 65.75-21.23 66-18.45 66.22-15.4 66.45-12.35 66.65-9.4 66.85-6.45 67.02-4.08 67.2-1.7 67.25-0.3L67.25-0.3Q66.8 0 66.3 0.15 65.8 0.3 65.15 0.3L65.15 0.3Q64.4 0.3 63.82-0.08 63.25-0.45 63.15-1.45L63.15-1.45Q62.85-6.3 62.57-11.03 62.3-15.75 62.1-19.7 61.9-23.65 61.75-26.15L61.75-26.15 61.55-26.15Q60.45-23.4 58.55-19.07 56.65-14.75 53.7-7.9Z" opacity="1" transform="matrix(1,0,0,1,0,0)" fill="black" class="wordmark-text-0" id="SvgjsPath1432"></path></svg></g></svg></g></svg></g></svg></g></svg></g></svg></g></svg></g><g mask="url(#0e056389-3898-4d07-a191-af4376dab707)"><g transform="matrix(4.391180146402427, 0, 0, 4.391180146402427, 1, 34.00016470273167)"><svg xmlns="http://www.w3.org/2000/svg" xmlns:xlink="http://www.w3.org/1999/xlink" version="1.1" x="0" y="0" viewBox="5.192 29.596000000000004 89.61600000000001 40.809" enable-background="new 0 0 100 100" xml:space="preserve" height="40.809" width="89.61600000000001" class="icon-none" data-fill-palette-color="accent" id="SvgjsSvg1431"><g fill="black"><path d="M85.077 70.405H73.855l3.503-4.205h2.129l-3.32-4.476-7.27 0.11-10.221-5.398-11.243 4.368-1.883-2.091-3.763 11.691h-13.16l4.979-3.752h1.813L36.597 66l0.014-5.483-4.95-1.297-0.438 3.12-10.444-6.789-0.469 3.242-6.361-6.271-3.148 1.475L5.192 46.87l4.142-4.473 0.128-1.545 3.68-2.809 0.099-3.836 6.859-4.458 0.834 1.355 3.24-1.508 10.789 1.318-2.394 1.812 8.105 1.407-1.583 3.004 0.691-0.176 14.894 2.069 8.671-0.994 10.349 2.131 13.258 9.428 0.805-0.395-0.262-1.4 7.311-6.758-2.389 10.748-5.748 2.028-14.254-9.731h-3.91l6.829 8.744 4.73 0.979 6.076 12.962 0.856 0.664L85.077 70.405 85.077 70.405zM77.183 68.847h7.046l0.685-1.058-0.021-0.017-5.906-12.596-4.525-0.936-9.147-11.714h7.151l14.433 9.558 4.188-1.479 1.119-5.035-3.017 2.789 0.322 1.717-2.701 1.325L73.244 41.358l-9.981-1.744L54.657 40.6l-0.098-0.013-14.689-2.04-3.79 0.959 2.216-4.205-9.528-1.655 2.185-1.653-6.525-0.797-4.093 1.907-0.725-1.177-4.832 3.14-0.096 3.763-3.724 2.842-0.115 1.391-3.603 3.89 4.018 5.109 3.009-1.41 4.939 4.867 0.375-2.603 10.436 6.784 0.341-2.432 7.812 2.047-0.019 7.604-2.218 1.183H34.24l-0.952 0.746h7.364l4.244-13.188 2.977 3.303 10.904-4.236 10.497 5.545 7.669-0.116 5.642 7.604h-4.496L77.183 68.847 77.183 68.847z" fill="black"></path></g></svg></g></g></svg></g><defs><mask></mask></defs></svg><rect width="395.52" height="247.2" fill="black" stroke="none" visibility="hidden"></rect></g></mask></svg><rect width="395.52" height="247.2" fill="black" stroke="none" visibility="hidden"></rect></g></mask><linearGradient x1="0" x2="1" y1="0.578" y2="0.595" id="44f83a47-ab04-4f7c-a66e-5b91ed55af7d"><stop stop-color="#6ee2f5" offset="0"></stop><stop stop-color="#6454f0" offset="1"></stop></linearGradient><rect width="395.52" height="247.2" fill="url(#44f83a47-ab04-4f7c-a66e-5b91ed55af7d)" mask="url(#54e42da3-80b7-407a-b18b-b3ed219f4ab4)" data-fill-palette-color="accent"></rect></svg><rect width="395.52" height="247.2" fill="none" stroke="none" visibility="hidden"></rect></g></svg></g></svg>